<svg width="331" height="222" viewBox="0 0 331 222" fill="none" xmlns="http://www.w3.org/2000/svg">
<rect width="331" height="222" fill="#4F3D18"/>
<path d="M165.483 68.6424C165.619 69.4594 168.231 85.0691 168.231 91.0314C168.231 100.123 163.486 106.606 156.471 109.214L158.673 150.602C158.793 152.984 156.932 155 154.577 155H143.654C141.316 155 139.438 153.001 139.558 150.602L141.759 109.214C134.728 106.606 130 100.105 130 91.0314C130 85.0518 132.611 69.4594 132.748 68.6424C133.294 65.1137 140.479 65.0616 140.923 68.8336V93.3781C141.145 93.9691 143.5 93.9344 143.654 93.3781C143.893 88.9803 145.002 69.1813 145.019 68.7293C145.582 65.1137 152.648 65.1137 153.194 68.7293C153.229 69.1987 154.321 88.9803 154.56 93.3781C154.713 93.9344 157.086 93.9691 157.291 93.3781V68.8336C157.734 65.079 164.937 65.1137 165.483 68.6424V68.6424ZM185.827 118.305L183.267 150.48C183.062 152.914 184.957 155 187.346 155H196.904C199.174 155 201 153.14 201 150.828V70.1721C201 67.8776 199.174 66.0002 196.904 66.0002C182.823 66.0002 159.117 97.0285 185.827 118.305Z" fill="#765A19"/>
</svg>
